<?xml version="1.0" encoding="UTF-8" standalone="no"?>
<svg
   xmlns:dc="http://purl.org/dc/elements/1.1/"
   xmlns:cc="http://creativecommons.org/ns#"
   xmlns:rdf="http://www.w3.org/1999/02/22-rdf-syntax-ns#"
   xmlns:svg="http://www.w3.org/2000/svg"
   xmlns="http://www.w3.org/2000/svg"
   xmlns:xlink="http://www.w3.org/1999/xlink"
   id="svg4354"
   height="48"
   width="48"
   version="1.1">
  <defs
     id="defs4356">
    <linearGradient
       id="linearGradient4107">
      <stop
         offset="0"
         style="stop-color:#ffffff;stop-opacity:1"
         id="stop4099" />
      <stop
         offset="0.20906843"
         style="stop-color:#ffffff;stop-opacity:0.23529412"
         id="stop4101" />
      <stop
         offset="0.82392961"
         style="stop-color:#ffffff;stop-opacity:0.15686275"
         id="stop4103" />
      <stop
         offset="1"
         style="stop-color:#ffffff;stop-opacity:0.39215687"
         id="stop4105" />
    </linearGradient>
    <linearGradient
       id="linearGradient3967">
      <stop
         id="stop3959"
         style="stop-color:#ffffff;stop-opacity:1"
         offset="0" />
      <stop
         id="stop3961"
         style="stop-color:#ffffff;stop-opacity:0.23529412"
         offset="0.50000083" />
      <stop
         id="stop3963"
         style="stop-color:#ffffff;stop-opacity:0.15686275"
         offset="0.87499994" />
      <stop
         id="stop3965"
         style="stop-color:#ffffff;stop-opacity:0.39215687"
         offset="1" />
    </linearGradient>
    <linearGradient
       id="linearGradient3811">
      <stop
         offset="0"
         style="stop-color:#ffffff;stop-opacity:1"
         id="stop3803" />
      <stop
         offset="0.12499996"
         style="stop-color:#ffffff;stop-opacity:0.23529412"
         id="stop3805" />
      <stop
         offset="0.87499994"
         style="stop-color:#ffffff;stop-opacity:0.15686275"
         id="stop3807" />
      <stop
         offset="1"
         style="stop-color:#ffffff;stop-opacity:0.39215687"
         id="stop3809" />
    </linearGradient>
    <linearGradient
       id="linearGradient857">
      <stop
         style="stop-color:#ffa154;stop-opacity:1"
         offset="0"
         id="stop853" />
      <stop
         style="stop-color:#f37329;stop-opacity:1"
         offset="1"
         id="stop855" />
    </linearGradient>
    <linearGradient
       gradientTransform="matrix(1.668006,0,0,1.2469948,-3376.7624,-3997.0095)"
       gradientUnits="userSpaceOnUse"
       xlink:href="#linearGradient857"
       id="linearGradient11527-6-5-3"
       y2="3218.5496"
       x2="2039.4186"
       y1="3209.7678"
       x1="2039.4186" />
    <linearGradient
       xlink:href="#linearGradient3811"
       id="linearGradient3293-2"
       gradientUnits="userSpaceOnUse"
       gradientTransform="matrix(2.3773676,0,0,3.0191781,-131.24195,-40.697008)"
       x1="66.578651"
       y1="15.798011"
       x2="66.578651"
       y2="18.447739" />
    <linearGradient
       xlink:href="#linearGradient3811"
       id="linearGradient3293-2-5"
       gradientUnits="userSpaceOnUse"
       gradientTransform="matrix(2.3773676,0,0,3.0191781,-131.24195,-14.697008)"
       x1="66.578651"
       y1="15.798011"
       x2="66.578651"
       y2="18.447739" />
    <linearGradient
       gradientTransform="matrix(1.668006,0,0,1.2469948,-3376.7624,-3971.0095)"
       gradientUnits="userSpaceOnUse"
       xlink:href="#linearGradient857"
       id="linearGradient11527-6-5-3-2"
       y2="3218.5496"
       x2="2039.4186"
       y1="3209.7678"
       x1="2039.4186" />
    <linearGradient
       xlink:href="#linearGradient3967"
       id="linearGradient3293-2-5-6"
       gradientUnits="userSpaceOnUse"
       gradientTransform="matrix(0,2.3773676,-3.0191781,0,62.697008,-131.24195)"
       x1="64.879303"
       y1="17.122875"
       x2="65.720566"
       y2="17.122875" />
    <linearGradient
       gradientTransform="matrix(0,1.668006,-1.2469948,0,4019.0095,-3376.7624)"
       gradientUnits="userSpaceOnUse"
       xlink:href="#linearGradient857"
       id="linearGradient11527-6-5-3-2-7"
       y2="3213.6733"
       x2="2040.308"
       y1="3213.7029"
       x1="2037.3368" />
    <linearGradient
       xlink:href="#linearGradient4107"
       id="linearGradient3293-2-5-6-9-7"
       gradientUnits="userSpaceOnUse"
       gradientTransform="matrix(2.3773676,0,0,3.0191781,-121.30082,-64.697007)"
       x1="65.002731"
       y1="15.913378"
       x2="66.815384"
       y2="17.3407" />
    <linearGradient
       gradientTransform="matrix(1.668006,0,0,1.2469948,-3366.8213,-4021.0095)"
       gradientUnits="userSpaceOnUse"
       xlink:href="#linearGradient857"
       id="linearGradient11527-6-5-3-2-7-2-3"
       y2="3217.1199"
       x2="2040.5167"
       y1="3211.8923"
       x1="2036.6086" />
    <linearGradient
       xlink:href="#linearGradient4107"
       id="linearGradient3293-2-5-6-9-7-5"
       gradientUnits="userSpaceOnUse"
       gradientTransform="matrix(2.3773676,0,0,3.0191781,-155.24188,-30.755995)"
       x1="65.002731"
       y1="15.913378"
       x2="66.815384"
       y2="17.3407" />
    <linearGradient
       gradientTransform="matrix(1.668006,0,0,1.2469948,-3400.7624,-3987.0684)"
       gradientUnits="userSpaceOnUse"
       xlink:href="#linearGradient857"
       id="linearGradient11527-6-5-3-2-7-2-3-6"
       y2="3217.1199"
       x2="2040.5167"
       y1="3211.8923"
       x1="2036.6086" />
    <linearGradient
       xlink:href="#linearGradient4107"
       id="linearGradient3293-2-5-6-9-7-2"
       gradientUnits="userSpaceOnUse"
       gradientTransform="matrix(2.3773676,0,0,3.0191781,-121.30082,-38.696795)"
       x1="65.002731"
       y1="15.913378"
       x2="66.815384"
       y2="17.3407" />
    <linearGradient
       gradientTransform="matrix(1.668006,0,0,1.2469948,-3366.8213,-3995.0093)"
       gradientUnits="userSpaceOnUse"
       xlink:href="#linearGradient857"
       id="linearGradient11527-6-5-3-2-7-2-3-4"
       y2="3217.1199"
       x2="2040.5167"
       y1="3211.8923"
       x1="2036.6086" />
    <linearGradient
       xlink:href="#linearGradient4107"
       id="linearGradient3293-2-5-6-9-7-5-8"
       gradientUnits="userSpaceOnUse"
       gradientTransform="matrix(2.3773676,0,0,3.0191781,-155.24189,-4.7557325)"
       x1="65.002731"
       y1="15.913378"
       x2="66.815384"
       y2="17.3407" />
    <linearGradient
       gradientTransform="matrix(1.668006,0,0,1.2469948,-3400.7623,-3961.0685)"
       gradientUnits="userSpaceOnUse"
       xlink:href="#linearGradient857"
       id="linearGradient11527-6-5-3-2-7-2-3-6-9"
       y2="3217.1199"
       x2="2040.5167"
       y1="3211.8923"
       x1="2036.6086" />
  </defs>
  <metadata
     id="metadata4359">
    <rdf:RDF>
      <cc:Work
         rdf:about="">
        <dc:format>image/svg+xml</dc:format>
        <dc:type
           rdf:resource="http://purl.org/dc/dcmitype/StillImage" />
        <dc:title></dc:title>
      </cc:Work>
    </rdf:RDF>
  </metadata>
  <rect
     id="rect3858-7-36"
     width="5"
     height="10.999999"
     x="21.5"
     y="5.500001"
     style="opacity:0.98999999;vector-effect:none;fill:url(#linearGradient11527-6-5-3);fill-opacity:1;stroke:none;stroke-width:0.99999994;stroke-linecap:butt;stroke-linejoin:miter;stroke-miterlimit:4;stroke-dasharray:none;stroke-dashoffset:0;stroke-opacity:1;marker:none;paint-order:normal"
     rx="2.5"
     ry="2.5" />
  <rect
     id="rect3858-7-3-7"
     width="3"
     height="9"
     x="22.499998"
     y="6.5"
     style="opacity:0.3;vector-effect:none;fill:none;fill-opacity:1;stroke:url(#linearGradient3293-2);stroke-width:0.99999988;stroke-linecap:round;stroke-linejoin:miter;stroke-miterlimit:4;stroke-dasharray:none;stroke-dashoffset:0;stroke-opacity:1;marker:none;paint-order:normal"
     rx="1.5"
     ry="1.5" />
  <rect
     id="rect3858-7-36-9"
     width="5"
     height="10.999999"
     x="21.5"
     y="31.5"
     style="opacity:0.98999999;vector-effect:none;fill:url(#linearGradient11527-6-5-3-2);fill-opacity:1;stroke:none;stroke-width:0.99999994;stroke-linecap:butt;stroke-linejoin:miter;stroke-miterlimit:4;stroke-dasharray:none;stroke-dashoffset:0;stroke-opacity:1;marker:none;paint-order:normal"
     rx="2.5"
     ry="2.5" />
  <rect
     id="rect3858-7-3-7-60"
     width="3"
     height="9"
     x="22.499998"
     y="32.5"
     style="opacity:0.3;vector-effect:none;fill:none;fill-opacity:1;stroke:url(#linearGradient3293-2-5);stroke-width:0.99999988;stroke-linecap:round;stroke-linejoin:miter;stroke-miterlimit:4;stroke-dasharray:none;stroke-dashoffset:0;stroke-opacity:1;marker:none;paint-order:normal"
     rx="1.5"
     ry="1.5" />
  <path
     style="opacity:0.98999999;vector-effect:none;fill:url(#linearGradient11527-6-5-3-2-7);fill-opacity:1;stroke:none;stroke-width:0.99999994;stroke-linecap:butt;stroke-linejoin:miter;stroke-miterlimit:4;stroke-dasharray:none;stroke-dashoffset:0;stroke-opacity:1;marker:none;paint-order:normal"
     d="M 8 21.5 C 6.615 21.5 5.5 22.615 5.5 24 C 5.5 25.385 6.615 26.5 8 26.5 L 14 26.5 C 15.385 26.5 16.5 25.385 16.5 24 C 16.5 22.615 15.385 21.5 14 21.5 L 8 21.5 z M 34 21.5 C 32.615 21.5 31.5 22.615 31.5 24 C 31.5 25.385 32.615 26.5 34 26.5 L 40 26.5 C 41.385 26.5 42.5 25.385 42.5 24 C 42.5 22.615 41.385 21.5 40 21.5 L 34 21.5 z "
     id="rect3858-7-36-9-2" />
  <path
     style="opacity:0.3;vector-effect:none;fill:none;fill-opacity:1;stroke:url(#linearGradient3293-2-5-6);stroke-width:0.99999988;stroke-linecap:round;stroke-linejoin:miter;stroke-miterlimit:4;stroke-dasharray:none;stroke-dashoffset:0;stroke-opacity:1;marker:none;paint-order:normal"
     d="M 8 22.5 C 7.169 22.5 6.5 23.169 6.5 24 C 6.5 24.831 7.169 25.5 8 25.5 L 14 25.5 C 14.831 25.5 15.5 24.831 15.5 24 C 15.5 23.169 14.831 22.5 14 22.5 L 8 22.5 z M 34 22.5 C 33.169 22.5 32.5 23.169 32.5 24 C 32.5 24.831 33.169 25.5 34 25.5 L 40 25.5 C 40.831 25.5 41.5 24.831 41.5 24 C 41.5 23.169 40.831 22.5 40 22.5 L 34 22.5 z "
     id="rect3858-7-3-7-60-8" />
  <rect
     id="rect3858-7-36-9-2-1-6"
     width="5"
     height="10.999999"
     x="31.441126"
     y="-18.5"
     style="opacity:0.98999999;vector-effect:none;fill:url(#linearGradient11527-6-5-3-2-7-2-3);fill-opacity:1;stroke:none;stroke-width:0.99999994;stroke-linecap:butt;stroke-linejoin:miter;stroke-miterlimit:4;stroke-dasharray:none;stroke-dashoffset:0;stroke-opacity:1;marker:none;paint-order:normal"
     rx="2.5"
     ry="2.5"
     transform="rotate(45)" />
  <rect
     id="rect3858-7-3-7-60-8-4-5"
     width="3"
     height="9"
     x="32.441124"
     y="-17.5"
     style="opacity:0.3;vector-effect:none;fill:none;fill-opacity:1;stroke:url(#linearGradient3293-2-5-6-9-7);stroke-width:0.99999988;stroke-linecap:round;stroke-linejoin:miter;stroke-miterlimit:4;stroke-dasharray:none;stroke-dashoffset:0;stroke-opacity:1;marker:none;paint-order:normal"
     rx="1.5"
     ry="1.5"
     transform="rotate(45)" />
  <rect
     id="rect3858-7-36-9-2-1-6-7"
     width="5"
     height="10.999999"
     x="-2.499893"
     y="15.44102"
     style="opacity:0.98999999;vector-effect:none;fill:url(#linearGradient11527-6-5-3-2-7-2-3-6);fill-opacity:1;stroke:none;stroke-width:0.99999994;stroke-linecap:butt;stroke-linejoin:miter;stroke-miterlimit:4;stroke-dasharray:none;stroke-dashoffset:0;stroke-opacity:1;marker:none;paint-order:normal"
     rx="2.5"
     ry="2.5"
     transform="matrix(-0.70710678,0.70710678,0.70710678,0.70710678,0,0)" />
  <rect
     id="rect3858-7-3-7-60-8-4-5-5"
     width="3"
     height="9"
     x="-1.4998934"
     y="16.441021"
     style="opacity:0.3;vector-effect:none;fill:none;fill-opacity:1;stroke:url(#linearGradient3293-2-5-6-9-7-5);stroke-width:0.99999988;stroke-linecap:round;stroke-linejoin:miter;stroke-miterlimit:4;stroke-dasharray:none;stroke-dashoffset:0;stroke-opacity:1;marker:none;paint-order:normal"
     rx="1.5"
     ry="1.5"
     transform="matrix(-0.70710678,0.70710678,0.70710678,0.70710678,0,0)" />
  <rect
     id="rect3858-7-36-9-2-1-6-78"
     width="5"
     height="10.999999"
     x="31.441124"
     y="7.5002122"
     style="opacity:0.98999999;vector-effect:none;fill:url(#linearGradient11527-6-5-3-2-7-2-3-4);fill-opacity:1;stroke:none;stroke-width:0.99999994;stroke-linecap:butt;stroke-linejoin:miter;stroke-miterlimit:4;stroke-dasharray:none;stroke-dashoffset:0;stroke-opacity:1;marker:none;paint-order:normal"
     rx="2.5"
     ry="2.5"
     transform="rotate(45)" />
  <rect
     id="rect3858-7-3-7-60-8-4-5-8"
     width="3"
     height="9"
     x="32.441124"
     y="8.5002127"
     style="opacity:0.3;vector-effect:none;fill:none;fill-opacity:1;stroke:url(#linearGradient3293-2-5-6-9-7-2);stroke-width:0.99999988;stroke-linecap:round;stroke-linejoin:miter;stroke-miterlimit:4;stroke-dasharray:none;stroke-dashoffset:0;stroke-opacity:1;marker:none;paint-order:normal"
     rx="1.5"
     ry="1.5"
     transform="rotate(45)" />
  <rect
     id="rect3858-7-36-9-2-1-6-7-6"
     width="5"
     height="10.999999"
     x="-2.4999416"
     y="41.441288"
     style="opacity:0.98999999;vector-effect:none;fill:url(#linearGradient11527-6-5-3-2-7-2-3-6-9);fill-opacity:1;stroke:none;stroke-width:0.99999994;stroke-linecap:butt;stroke-linejoin:miter;stroke-miterlimit:4;stroke-dasharray:none;stroke-dashoffset:0;stroke-opacity:1;marker:none;paint-order:normal"
     rx="2.5"
     ry="2.5"
     transform="matrix(-0.70710678,0.70710678,0.70710678,0.70710678,0,0)" />
  <rect
     id="rect3858-7-3-7-60-8-4-5-5-9"
     width="3"
     height="9"
     x="-1.4999419"
     y="42.441292"
     style="opacity:0.3;vector-effect:none;fill:none;fill-opacity:1;stroke:url(#linearGradient3293-2-5-6-9-7-5-8);stroke-width:0.99999988;stroke-linecap:round;stroke-linejoin:miter;stroke-miterlimit:4;stroke-dasharray:none;stroke-dashoffset:0;stroke-opacity:1;marker:none;paint-order:normal"
     rx="1.5"
     ry="1.5"
     transform="matrix(-0.70710678,0.70710678,0.70710678,0.70710678,0,0)" />
  <path
     id="rect3858-7-3-2-9-1"
     d="M 24 5.5 C 22.615 5.5 21.5 6.615 21.5 8 L 21.5 14 C 21.5 15.385 22.615 16.5 24 16.5 C 25.385 16.5 26.5 15.385 26.5 14 L 26.5 8 C 26.5 6.615 25.385 5.5 24 5.5 z M 12.685547 10.183594 C 12.046499 10.183594 11.40764 10.428297 10.917969 10.917969 C 9.9386259 11.897312 9.9386259 13.473782 10.917969 14.453125 L 15.160156 18.697266 C 16.139499 19.676609 17.717923 19.676609 18.697266 18.697266 C 19.676609 17.717923 19.676609 16.141452 18.697266 15.162109 L 14.453125 10.917969 C 13.963454 10.428297 13.324595 10.183594 12.685547 10.183594 z M 35.314453 10.183594 C 34.675405 10.183594 34.036546 10.428297 33.546875 10.917969 L 29.302734 15.162109 C 28.323391 16.141452 28.323391 17.717923 29.302734 18.697266 C 30.282077 19.676609 31.858548 19.676609 32.837891 18.697266 L 37.082031 14.453125 C 38.061374 13.473782 38.061374 11.897312 37.082031 10.917969 C 36.59236 10.428297 35.953501 10.183594 35.314453 10.183594 z M 8 21.5 C 6.615 21.5 5.5 22.615 5.5 24 C 5.5 25.385 6.615 26.5 8 26.5 L 14 26.5 C 15.385 26.5 16.5 25.385 16.5 24 C 16.5 22.615 15.385 21.5 14 21.5 L 8 21.5 z M 34 21.5 C 32.615 21.5 31.5 22.615 31.5 24 C 31.5 25.385 32.615 26.5 34 26.5 L 40 26.5 C 41.385 26.5 42.5 25.385 42.5 24 C 42.5 22.615 41.385 21.5 40 21.5 L 34 21.5 z M 16.929688 28.568359 C 16.29064 28.568359 15.649828 28.813063 15.160156 29.302734 L 10.917969 33.546875 C 9.9386259 34.526218 9.9386259 36.102688 10.917969 37.082031 C 11.897312 38.061374 13.473782 38.061374 14.453125 37.082031 L 18.697266 32.839844 C 19.676609 31.860501 19.676609 30.282077 18.697266 29.302734 C 18.207594 28.813063 17.568735 28.568359 16.929688 28.568359 z M 31.070312 28.568359 C 30.431265 28.568359 29.792406 28.813063 29.302734 29.302734 C 28.323391 30.282077 28.323391 31.860501 29.302734 32.839844 L 33.546875 37.082031 C 34.526218 38.061374 36.102688 38.061374 37.082031 37.082031 C 38.061374 36.102688 38.061374 34.526218 37.082031 33.546875 L 32.839844 29.302734 C 32.350172 28.813063 31.70936 28.568359 31.070312 28.568359 z M 24 31.5 C 22.615 31.5 21.5 32.615 21.5 34 L 21.5 40 C 21.5 41.385 22.615 42.5 24 42.5 C 25.385 42.5 26.5 41.385 26.5 40 L 26.5 34 C 26.5 32.615 25.385 31.5 24 31.5 z "
     style="opacity:0.5;vector-effect:none;fill:none;fill-opacity:1;stroke:#a62100;stroke-width:0.99999994;stroke-linecap:round;stroke-linejoin:round;stroke-miterlimit:4;stroke-dasharray:none;stroke-dashoffset:0;stroke-opacity:1;marker:none;paint-order:normal" />
</svg>
