<?xml version="1.0" encoding="UTF-8" standalone="no"?>
<svg
   xmlns:dc="http://purl.org/dc/elements/1.1/"
   xmlns:cc="http://creativecommons.org/ns#"
   xmlns:rdf="http://www.w3.org/1999/02/22-rdf-syntax-ns#"
   xmlns:svg="http://www.w3.org/2000/svg"
   xmlns="http://www.w3.org/2000/svg"
   xmlns:xlink="http://www.w3.org/1999/xlink"
   id="svg4354"
   height="16"
   width="16"
   version="1.1">
  <defs
     id="defs4356">
    <linearGradient
       gradientTransform="matrix(0.67897745,0,0,0.67897745,0.24715779,0.1733036)"
       y2="2"
       x2="9"
       y1="22"
       x1="9"
       gradientUnits="userSpaceOnUse"
       id="linearGradient26179"
       xlink:href="#linearGradient13193" />
    <linearGradient
       id="linearGradient13193">
      <stop
         id="stop13195"
         offset="0"
         style="stop-color:#000000;stop-opacity:1" />
      <stop
         id="stop13197"
         offset="1"
         style="stop-color:#333333;stop-opacity:1" />
    </linearGradient>
    <linearGradient
       y2="16"
       x2="6"
       y1="8"
       x1="14"
       gradientUnits="userSpaceOnUse"
       id="linearGradient26181"
       xlink:href="#linearGradient7449" />
    <linearGradient
       id="linearGradient7449">
      <stop
         id="stop7451"
         offset="0"
         style="stop-color:#ffffff;stop-opacity:1;" />
      <stop
         style="stop-color:#ffffff;stop-opacity:0"
         offset="0.125"
         id="stop7457" />
      <stop
         id="stop7453"
         offset="1"
         style="stop-color:#ffffff;stop-opacity:0;" />
    </linearGradient>
    <clipPath
       id="clipPath7445"
       clipPathUnits="userSpaceOnUse">
      <path
         style="fill:#333333;fill-opacity:1;fill-rule:evenodd;stroke:none;stroke-width:2;stroke-linecap:butt;stroke-linejoin:miter;stroke-miterlimit:4;stroke-dasharray:none;stroke-opacity:1"
         d="M 8,2.6855469 V 16.685547 l 3.132812,-3.820313 2.066407,4.986328 a 1.0001,1.0001 0 1 0 1.847656,-0.765624 L 12.935547,11.990234 17.314453,12 Z"
         id="path7447" />
    </clipPath>
  </defs>
  <metadata
     id="metadata4359">
    <rdf:RDF>
      <cc:Work
         rdf:about="">
        <dc:format>image/svg+xml</dc:format>
        <dc:type
           rdf:resource="http://purl.org/dc/dcmitype/StillImage" />
        <dc:title></dc:title>
      </cc:Work>
    </rdf:RDF>
  </metadata>
  <path
     id="path7433"
     d="M 5.7903647,3.4608427 V 12.794175 L 7.878906,10.2473 9.2565106,13.571518 A 0.66673332,0.66673332 0 1 0 10.488281,13.061102 L 9.0807293,9.6639667 12,9.6704667 Z"
     style="opacity:0.05;fill:#000000;fill-opacity:1;fill-rule:evenodd;stroke:#000000;stroke-width:4;stroke-linecap:butt;stroke-linejoin:round;stroke-miterlimit:4;stroke-dasharray:none;stroke-opacity:1" />
  <path
     style="opacity:0.2;fill:#000000;fill-opacity:1;fill-rule:evenodd;stroke:#000000;stroke-width:2;stroke-linecap:butt;stroke-linejoin:round;stroke-miterlimit:4;stroke-dasharray:none;stroke-opacity:1"
     d="m 6,3.796876 v 9.333333 l 2.0885413,-2.546875 1.3776046,3.324218 A 0.66673332,0.66673332 0 1 0 10.697916,13.397136 L 9.2903646,10 12.209635,10.0065 Z"
     id="path98958" />
  <path
     style="fill:none;fill-opacity:1;fill-rule:evenodd;stroke:#ffffff;stroke-width:2;stroke-linecap:butt;stroke-linejoin:miter;stroke-miterlimit:4;stroke-dasharray:none;stroke-opacity:1"
     d="M 4.9999999,2.6757077 V 12.181392 L 7.1271088,9.5874848 8.5301525,12.97309 a 0.67904533,0.67904533 0 1 0 1.2545166,-0.519842 l -1.4335442,-3.4598682 2.9731781,0.00662 z"
     id="path7431" />
  <path
     id="path7371"
     d="M 4.9999999,2.6757077 V 12.181392 L 7.1271088,9.5874848 8.5301525,12.97309 a 0.67904533,0.67904533 0 1 0 1.2545166,-0.519842 l -1.4335442,-3.4598682 2.9731781,0.00662 z"
     style="fill:url(#linearGradient26179);fill-opacity:1;fill-rule:evenodd;stroke:none;stroke-width:2.66666651;stroke-linecap:butt;stroke-linejoin:miter;stroke-miterlimit:4;stroke-dasharray:none;stroke-opacity:1" />
  <path
     transform="matrix(0.67897746,0,0,0.67897746,-0.43181966,0.85228147)"
     clip-path="url(#clipPath7445)"
     id="path7441"
     d="M 8,2.6855469 V 16.685547 l 3.132812,-3.820313 2.066407,4.986328 a 1.0001,1.0001 0 1 0 1.847656,-0.765624 L 12.935547,11.990234 17.314453,12 Z"
     style="opacity:0.4;fill:none;fill-opacity:1;fill-rule:evenodd;stroke:url(#linearGradient26181);stroke-width:3.9274745;stroke-linecap:butt;stroke-linejoin:miter;stroke-miterlimit:4;stroke-dasharray:none;stroke-opacity:1" />
</svg>
