<?xml version="1.0" encoding="UTF-8" standalone="no"?>
<svg
   xmlns:dc="http://purl.org/dc/elements/1.1/"
   xmlns:cc="http://creativecommons.org/ns#"
   xmlns:rdf="http://www.w3.org/1999/02/22-rdf-syntax-ns#"
   xmlns:svg="http://www.w3.org/2000/svg"
   xmlns="http://www.w3.org/2000/svg"
   xmlns:xlink="http://www.w3.org/1999/xlink"
   id="svg4354"
   height="48"
   width="48"
   version="1.1">
  <defs
     id="defs4356">
    <linearGradient
       gradientTransform="matrix(2,0,0,2,1.0000004,0.01691597)"
       y2="2"
       x2="9"
       y1="22"
       x1="9"
       gradientUnits="userSpaceOnUse"
       id="linearGradient26179"
       xlink:href="#linearGradient13193" />
    <linearGradient
       id="linearGradient13193">
      <stop
         id="stop13195"
         offset="0"
         style="stop-color:#000000;stop-opacity:1" />
      <stop
         id="stop13197"
         offset="1"
         style="stop-color:#333333;stop-opacity:1" />
    </linearGradient>
    <linearGradient
       y2="16"
       x2="6"
       y1="8"
       x1="14"
       gradientUnits="userSpaceOnUse"
       id="linearGradient26181"
       xlink:href="#linearGradient7449" />
    <linearGradient
       id="linearGradient7449">
      <stop
         id="stop7451"
         offset="0"
         style="stop-color:#ffffff;stop-opacity:1;" />
      <stop
         style="stop-color:#ffffff;stop-opacity:0"
         offset="0.125"
         id="stop7457" />
      <stop
         id="stop7453"
         offset="1"
         style="stop-color:#ffffff;stop-opacity:0;" />
    </linearGradient>
    <clipPath
       id="clipPath7445"
       clipPathUnits="userSpaceOnUse">
      <path
         style="fill:#333333;fill-opacity:1;fill-rule:evenodd;stroke:none;stroke-width:2;stroke-linecap:butt;stroke-linejoin:miter;stroke-miterlimit:4;stroke-dasharray:none;stroke-opacity:1"
         d="M 8,2.6855469 V 16.685547 l 3.132812,-3.820313 2.066407,4.986328 a 1.0001,1.0001 0 1 0 1.847656,-0.765624 L 12.935547,11.990234 17.314453,12 Z"
         id="path7447" />
    </clipPath>
  </defs>
  <metadata
     id="metadata4359">
    <rdf:RDF>
      <cc:Work
         rdf:about="">
        <dc:format>image/svg+xml</dc:format>
        <dc:type
           rdf:resource="http://purl.org/dc/dcmitype/StillImage" />
        <dc:title></dc:title>
      </cc:Work>
    </rdf:RDF>
  </metadata>
  <path
     style="opacity:0.02000002;fill:#000000;fill-opacity:1;fill-rule:evenodd;stroke:#000000;stroke-width:6;stroke-linecap:butt;stroke-linejoin:round;stroke-miterlimit:4;stroke-dasharray:none;stroke-opacity:1"
     d="M 16.734376,8.8866448 V 36.886645 L 23,29.246019 l 4.132814,9.972656 a 2.0002,2.0002 0 1 0 3.695312,-1.531248 l -4.222656,-10.191408 8.757812,0.01953 z"
     id="path98960" />
  <path
     style="opacity:0.2;fill:#000000;fill-opacity:1;fill-rule:evenodd;stroke:#000000;stroke-width:2;stroke-linecap:butt;stroke-linejoin:round;stroke-miterlimit:4;stroke-dasharray:none;stroke-opacity:1"
     d="M 16.734376,8.4693648 V 36.469365 L 23,28.828739 l 4.132814,9.972656 a 2.0002,2.0002 0 1 0 3.695312,-1.531248 l -4.222656,-10.191408 8.757812,0.01953 z"
     id="path98958" />
  <path
     id="path7433"
     d="M 16.632124,8.8840288 V 36.884029 l 6.265624,-7.640626 4.132814,9.972656 a 2.0002,2.0002 0 1 0 3.695312,-1.531248 l -4.222656,-10.191408 8.757812,0.01953 z"
     style="opacity:0.05;fill:#000000;fill-opacity:1;fill-rule:evenodd;stroke:#000000;stroke-width:4;stroke-linecap:butt;stroke-linejoin:round;stroke-miterlimit:4;stroke-dasharray:none;stroke-opacity:1" />
  <path
     style="fill:none;fill-opacity:1;fill-rule:evenodd;stroke:#ffffff;stroke-width:2;stroke-linecap:butt;stroke-linejoin:miter;stroke-miterlimit:4;stroke-dasharray:none;stroke-opacity:1"
     d="M 15,7.3880099 V 35.38801 l 6.265625,-7.640627 4.132813,9.972656 a 2.0001999,2.0001999 0 1 0 3.695312,-1.531248 l -4.222657,-10.191407 8.757812,0.01953 z"
     id="path7431" />
  <path
     id="path7371"
     d="M 15,7.3880099 V 35.38801 l 6.265625,-7.640627 4.132813,9.972656 a 2.0001999,2.0001999 0 1 0 3.695312,-1.531248 l -4.222657,-10.191407 8.757812,0.01953 z"
     style="fill:url(#linearGradient26179);fill-opacity:1;fill-rule:evenodd;stroke:none;stroke-width:2.66666651;stroke-linecap:butt;stroke-linejoin:miter;stroke-miterlimit:4;stroke-dasharray:none;stroke-opacity:1" />
  <path
     transform="matrix(2,0,0,2,-0.89774753,1.602252)"
     clip-path="url(#clipPath7445)"
     id="path7441"
     d="m 7.9488738,2.892879 v 14 l 3.1328122,-3.820313 2.117533,4.778996 c 0.500102,1.256433 2.382807,0.476286 1.847656,-0.765624 l -2.162455,-4.888372 4.378906,0.0098 z"
     style="opacity:0.4;fill:none;fill-opacity:1;fill-rule:evenodd;stroke:url(#linearGradient26181);stroke-width:1.33333337;stroke-linecap:butt;stroke-linejoin:miter;stroke-miterlimit:4;stroke-dasharray:none;stroke-opacity:1" />
</svg>
