<?xml version="1.0" encoding="UTF-8" standalone="no"?>
<svg
   xmlns:dc="http://purl.org/dc/elements/1.1/"
   xmlns:cc="http://creativecommons.org/ns#"
   xmlns:rdf="http://www.w3.org/1999/02/22-rdf-syntax-ns#"
   xmlns:svg="http://www.w3.org/2000/svg"
   xmlns="http://www.w3.org/2000/svg"
   viewBox="0 0 32 32"
   id="svg4354"
   height="32"
   width="32"
   version="1.1">
  <defs
     id="defs4356" />
  <metadata
     id="metadata4359">
    <rdf:RDF>
      <cc:Work
         rdf:about="">
        <dc:format>image/svg+xml</dc:format>
        <dc:type
           rdf:resource="http://purl.org/dc/dcmitype/StillImage" />
        <dc:title></dc:title>
      </cc:Work>
    </rdf:RDF>
  </metadata>
  <path
     id="rect913-9-7"
     style="font-variation-settings:normal;vector-effect:none;fill:#555761;fill-opacity:1;stroke:none;stroke-width:1;stroke-linecap:butt;stroke-linejoin:miter;stroke-miterlimit:4;stroke-dasharray:none;stroke-dashoffset:0;stroke-opacity:1;marker:none;paint-order:normal;stop-color:#000000"
     d="M 5,4 C 3.338,4 2,5.3 2,7 v 19 c 0,1.7 1.338,3 3,3 h 22 c 1.662,0 3,-1.3 3,-3 V 7 C 30,5.3 28.662,4 27,4 Z m 0,1 h 22 c 1.108,0 2,0.9 2,2 v 19 c 0,1.1 -0.892,2 -2,2 H 5 C 3.892,28 3,27.1 3,26 V 7 C 3,5.9 3.892,5 5,5 Z" />
  <path
     id="rect913-6-2-5"
     style="font-variation-settings:normal;opacity:0.1;vector-effect:none;fill:#555761;fill-opacity:1;stroke:none;stroke-width:1;stroke-linecap:round;stroke-linejoin:round;stroke-miterlimit:4;stroke-dasharray:none;stroke-dashoffset:0;stroke-opacity:1;marker:none;paint-order:normal;stop-color:#000000"
     d="M 5,5 C 3.892,5 3,5.892 3,7 v 19 c 0,1.108 0.892,2 2,2 h 22 c 1.108,0 2,-0.892 2,-2 V 7 C 29,5.892 28.108,5 27,5 Z m 7.5,9 A 2.5,2.5 0 0 1 15,16.5 2.5,2.5 0 0 1 12.5,19 2.5,2.5 0 0 1 10,16.5 2.5,2.5 0 0 1 12.5,14 Z m 8,0 A 2.5,2.5 0 0 1 23,16.5 2.5,2.5 0 0 1 20.5,19 2.5,2.5 0 0 1 18,16.5 2.5,2.5 0 0 1 20.5,14 Z" />
  <path
     id="path925"
     style="font-variation-settings:normal;opacity:0.8;vector-effect:none;fill:#555761;fill-opacity:1;stroke:none;stroke-width:1;stroke-linecap:round;stroke-linejoin:round;stroke-miterlimit:4;stroke-dasharray:none;stroke-dashoffset:0;stroke-opacity:1;marker:none;paint-order:normal;stop-color:#000000;stop-opacity:1"
     d="M 12.5,14 A 2.5,2.5 0 0 0 10,16.5 2.5,2.5 0 0 0 12.5,19 2.5,2.5 0 0 0 15,16.5 2.5,2.5 0 0 0 12.5,14 Z m 8,0 A 2.5,2.5 0 0 0 18,16.5 2.5,2.5 0 0 0 20.5,19 2.5,2.5 0 0 0 23,16.5 2.5,2.5 0 0 0 20.5,14 Z" />
</svg>
