<?xml version="1.0" encoding="UTF-8" standalone="no"?>
<svg
   xmlns:dc="http://purl.org/dc/elements/1.1/"
   xmlns:cc="http://creativecommons.org/ns#"
   xmlns:rdf="http://www.w3.org/1999/02/22-rdf-syntax-ns#"
   xmlns:svg="http://www.w3.org/2000/svg"
   xmlns="http://www.w3.org/2000/svg"
   viewBox="0 0 32 32"
   id="svg4354"
   height="32"
   width="32"
   version="1.1">
  <defs
     id="defs4356" />
  <metadata
     id="metadata4359">
    <rdf:RDF>
      <cc:Work
         rdf:about="">
        <dc:format>image/svg+xml</dc:format>
        <dc:type
           rdf:resource="http://purl.org/dc/dcmitype/StillImage" />
        <dc:title></dc:title>
      </cc:Work>
    </rdf:RDF>
  </metadata>
  <path
     id="rect913-9"
     style="font-variation-settings:normal;vector-effect:none;fill:#555761;fill-opacity:1;stroke:none;stroke-width:1;stroke-linecap:butt;stroke-linejoin:miter;stroke-miterlimit:4;stroke-dasharray:none;stroke-dashoffset:0;stroke-opacity:1;marker:none;paint-order:normal;stop-color:#000000"
     d="M 5,4 C 3.338,4 2,5.3 2,7 v 19 c 0,1.7 1.338,3 3,3 h 22 c 1.662,0 3,-1.3 3,-3 V 7 C 30,5.3 28.662,4 27,4 Z m 0,1 h 22 c 1.108,0 2,0.9 2,2 v 19 c 0,1.1 -0.892,2 -2,2 H 5 C 3.892,28 3,27.1 3,26 V 7 C 3,5.9 3.892,5 5,5 Z" />
  <path
     id="rect913-6-2"
     style="font-variation-settings:normal;opacity:0.1;vector-effect:none;fill:#555761;fill-opacity:1;stroke:none;stroke-width:1;stroke-linecap:round;stroke-linejoin:round;stroke-miterlimit:4;stroke-dasharray:none;stroke-dashoffset:0;stroke-opacity:1;marker:none;paint-order:normal;stop-color:#000000"
     d="M 5 5 C 3.892 5 3 5.892 3 7 L 3 26 C 3 27.108 3.892 28 5 28 L 27 28 C 28.108 28 29 27.108 29 26 L 29 7 C 29 5.892 28.108 5 27 5 L 5 5 z M 18.023438 22 L 26.976562 22 C 27.543133 22 28 22.456867 28 23.023438 L 28 25.976562 C 28 26.543133 27.543133 27 26.976562 27 L 18.023438 27 C 17.456867 27 17 26.543133 17 25.976562 L 17 23.023438 C 17 22.456867 17.456867 22 18.023438 22 z " />
  <rect
     style="font-variation-settings:normal;opacity:0.8;vector-effect:none;fill:#555761;fill-opacity:1;stroke:none;stroke-width:1;stroke-linecap:round;stroke-linejoin:round;stroke-miterlimit:4;stroke-dasharray:none;stroke-dashoffset:0;stroke-opacity:1;marker:none;paint-order:normal;stop-color:#000000;stop-opacity:1"
     id="rect835"
     width="11"
     height="5"
     x="17"
     y="22"
     ry="1.0226908"
     rx="1.0226908" />
</svg>
