<?xml version="1.0" encoding="UTF-8" standalone="no"?>
<svg
   xmlns:dc="http://purl.org/dc/elements/1.1/"
   xmlns:cc="http://creativecommons.org/ns#"
   xmlns:rdf="http://www.w3.org/1999/02/22-rdf-syntax-ns#"
   xmlns:svg="http://www.w3.org/2000/svg"
   xmlns="http://www.w3.org/2000/svg"
   viewBox="0 0 32 32"
   id="svg4354"
   height="32"
   width="32"
   version="1.1">
  <defs
     id="defs4356" />
  <metadata
     id="metadata4359">
    <rdf:RDF>
      <cc:Work
         rdf:about="">
        <dc:format>image/svg+xml</dc:format>
        <dc:type
           rdf:resource="http://purl.org/dc/dcmitype/StillImage" />
        <dc:title></dc:title>
      </cc:Work>
    </rdf:RDF>
  </metadata>
  <path
     id="rect913-9"
     style="font-variation-settings:normal;vector-effect:none;fill:#555761;fill-opacity:1;stroke:none;stroke-width:1;stroke-linecap:butt;stroke-linejoin:miter;stroke-miterlimit:4;stroke-dasharray:none;stroke-dashoffset:0;stroke-opacity:1;marker:none;paint-order:normal;stop-color:#000000"
     d="M 5,4 C 3.338,4 2,5.3 2,7 v 19 c 0,1.7 1.338,3 3,3 h 22 c 1.662,0 3,-1.3 3,-3 V 7 C 30,5.3 28.662,4 27,4 Z m 0,1 h 22 c 1.108,0 2,0.9 2,2 v 19 c 0,1.1 -0.892,2 -2,2 H 5 C 3.892,28 3,27.1 3,26 V 7 C 3,5.9 3.892,5 5,5 Z" />
  <path
     id="rect913-6-2"
     style="font-variation-settings:normal;opacity:0.1;vector-effect:none;fill:#555761;fill-opacity:1;stroke:none;stroke-width:1;stroke-linecap:round;stroke-linejoin:round;stroke-miterlimit:4;stroke-dasharray:none;stroke-dashoffset:0;stroke-opacity:1;marker:none;paint-order:normal;stop-color:#000000"
     d="M 5 5 C 3.892 5 3 5.892 3 7 L 3 26 C 3 27.108 3.892 28 5 28 L 27 28 C 28.108 28 29 27.108 29 26 L 29 7 C 29 5.892 28.108 5 27 5 L 5 5 z M 26.496094 7 C 26.562554 7 26.623179 6.9996094 26.667969 7.0996094 L 28.082031 8.5 C 28.133591 8.5999998 28.166016 8.6992188 28.166016 8.6992188 C 28.166016 8.8992186 28.054576 9 27.916016 9 L 27 9 L 27 22 L 27.916016 22 C 28.009608 22.102173 28.166016 22.100781 28.166016 22.300781 C 28.166016 22.300781 28.133601 22.4 28.082031 22.5 L 26.667969 23.900391 C 26.623175 24.000392 26.562554 24 26.496094 24 C 26.42963 24 26.370972 24.000391 26.326172 23.900391 L 24.917969 22.5 C 24.866409 22.400001 24.833984 22.300781 24.833984 22.300781 C 24.833984 22.100781 24.945425 22 25.083984 22 L 26 22 L 26 9 L 25.083984 9 C 24.945425 9 24.833979 8.8992186 24.833984 8.6992188 C 24.833984 8.6992188 24.866399 8.6 24.917969 8.5 L 26.326172 7.0996094 C 26.370962 6.9996098 26.429634 7 26.496094 7 z M 6.7421875 23.800781 C 6.8859275 23.800781 7 23.899609 7 24.099609 L 7 25 L 23 25 L 23 24.099609 C 23 23.899609 23.116027 23.800781 23.259766 23.800781 C 23.337235 23.800781 23.405665 23.900391 23.453125 23.900391 L 24.929688 25.300781 C 24.973567 25.40078 25.001953 25.4 25.001953 25.5 C 25.001953 25.599999 24.973568 25.599219 24.929688 25.699219 L 23.453125 27.099609 C 23.405663 27.099609 23.337236 27.199219 23.259766 27.199219 C 23.116027 27.199219 23 27.100391 23 26.900391 L 23 26 L 7 26 L 7 26.900391 C 6.999566 27.100389 6.8859275 27.199219 6.7421875 27.199219 C 6.6647175 27.199219 6.5962881 27.099609 6.5488281 27.099609 L 5.0703125 25.699219 C 5.0264335 25.59922 5 25.6 5 25.5 C 5 25.4 5.0264325 25.400781 5.0703125 25.300781 L 6.5488281 23.900391 C 6.5962881 23.900391 6.6647175 23.800781 6.7421875 23.800781 z " />
  <path
     id="path873-5-2"
     style="fill:#555761;stroke:none;stroke-width:1;stroke-linecap:round;stroke-linejoin:round;stop-color:#000000;font-variation-settings:normal;opacity:0.8;vector-effect:none;fill-opacity:1;stroke-miterlimit:4;stroke-dasharray:none;stroke-dashoffset:0;stroke-opacity:1;marker:none;paint-order:normal;stop-opacity:1"
     d="M 26.496094 7 C 26.429634 7 26.370962 6.9996094 26.326172 7.0996094 L 24.917969 8.5 C 24.866399 8.6 24.833984 8.6992188 24.833984 8.6992188 C 24.833984 8.8992187 24.945425 9 25.083984 9 L 26 9 L 26 22 L 25.083984 22 C 24.945425 22 24.833984 22.100781 24.833984 22.300781 C 24.833984 22.300781 24.866409 22.4 24.917969 22.5 L 26.326172 23.900391 C 26.370972 24.000391 26.42963 24 26.496094 24 C 26.562554 24 26.623175 24.000391 26.667969 23.900391 L 28.082031 22.5 C 28.133601 22.4 28.166016 22.300781 28.166016 22.300781 C 28.166016 22.100781 28.009608 22.102173 27.916016 22 L 27 22 L 27 9 L 27.916016 9 C 28.054576 9 28.166016 8.8992187 28.166016 8.6992188 C 28.166016 8.6992188 28.133591 8.6 28.082031 8.5 L 26.667969 7.0996094 C 26.623179 6.9996094 26.562554 7 26.496094 7 z M 6.7421875 23.800781 C 6.6647175 23.800781 6.5962881 23.900391 6.5488281 23.900391 L 5.0703125 25.300781 C 5.0264325 25.400781 5 25.4 5 25.5 C 5 25.6 5.0264325 25.599219 5.0703125 25.699219 L 6.5488281 27.099609 C 6.5962881 27.099609 6.6647175 27.199219 6.7421875 27.199219 C 6.8859275 27.199219 6.999566 27.100391 7 26.900391 L 7 26 L 23 26 L 23 26.900391 C 23 27.100391 23.116026 27.199219 23.259766 27.199219 C 23.337236 27.199219 23.405664 27.099609 23.453125 27.099609 L 24.929688 25.699219 C 24.973568 25.599219 25.001953 25.6 25.001953 25.5 C 25.001953 25.4 24.973568 25.400781 24.929688 25.300781 L 23.453125 23.900391 C 23.405665 23.900391 23.337235 23.800781 23.259766 23.800781 C 23.116026 23.800781 23 23.899609 23 24.099609 L 23 25 L 7 25 L 7 24.099609 C 7 23.899609 6.8859275 23.800781 6.7421875 23.800781 z " />
</svg>
