<?xml version="1.0" encoding="UTF-8" standalone="no"?>
<svg
   xmlns:dc="http://purl.org/dc/elements/1.1/"
   xmlns:cc="http://creativecommons.org/ns#"
   xmlns:rdf="http://www.w3.org/1999/02/22-rdf-syntax-ns#"
   xmlns:svg="http://www.w3.org/2000/svg"
   xmlns="http://www.w3.org/2000/svg"
   viewBox="0 0 32 32"
   id="svg4354"
   height="32"
   width="32"
   version="1.1">
  <defs
     id="defs4356" />
  <metadata
     id="metadata4359">
    <rdf:RDF>
      <cc:Work
         rdf:about="">
        <dc:format>image/svg+xml</dc:format>
        <dc:type
           rdf:resource="http://purl.org/dc/dcmitype/StillImage" />
        <dc:title></dc:title>
      </cc:Work>
    </rdf:RDF>
  </metadata>
  <path
     id="rect913-2"
     style="font-variation-settings:normal;vector-effect:none;fill:#555761;fill-opacity:1;stroke:none;stroke-width:1;stroke-linecap:butt;stroke-linejoin:miter;stroke-miterlimit:4;stroke-dasharray:none;stroke-dashoffset:0;stroke-opacity:1;marker:none;paint-order:normal;stop-color:#000000"
     d="M 5,4 C 3.338,4 2,5.338 2,7 v 19 c 0,1.662 1.338,3 3,3 h 22 c 1.662,0 3,-1.338 3,-3 V 7 C 30,5.338 28.662,4 27,4 Z m 0,1 h 22 c 1.108,0 2,0.892 2,2 v 19 c 0,1.108 -0.892,2 -2,2 H 5 C 3.892,28 3,27.108 3,26 V 7 C 3,5.892 3.892,5 5,5 Z" />
  <path
     id="rect913-6-9"
     style="font-variation-settings:normal;opacity:0.1;vector-effect:none;fill:#555761;fill-opacity:1;stroke:none;stroke-width:1;stroke-linecap:round;stroke-linejoin:round;stroke-miterlimit:4;stroke-dasharray:none;stroke-dashoffset:0;stroke-opacity:1;marker:none;paint-order:normal;stop-color:#000000"
     d="M 5,5 C 3.892,5 3,5.892 3,7 v 19 c 0,1.108 0.892,2 2,2 h 22 c 1.108,0 2,-0.892 2,-2 V 7 C 29,5.892 28.108,5 27,5 Z m 8.496094,1.9980469 c 0.06646,-4e-7 0.127085,0.028386 0.171875,0.072266 l 1.414062,1.4765625 c 0.05156,0.04746 0.08399,0.1158904 0.08399,0.1933594 0,0.14374 -0.11144,0.2597656 -0.25,0.2597656 H 14 v 5 h 3 V 9 h -0.916016 c -0.138559,0 -0.25,-0.1160256 -0.25,-0.2597656 0,-0.07747 0.03242,-0.1458984 0.08399,-0.1933594 l 1.408203,-1.4765625 c 0.04479,-0.04388 0.103462,-0.072266 0.169922,-0.072266 0.06646,0 0.127085,0.028386 0.171875,0.072266 l 1.414062,1.4765625 c 0.05156,0.04746 0.08398,0.1158904 0.08398,0.1933594 0,0.14374 -0.11144,0.2597656 -0.25,0.2597656 H 18 v 5 h 6.998047 v -0.916016 c 0,-0.13856 0.116025,-0.25 0.259765,-0.25 0.07747,0 0.1459,0.03242 0.19336,0.08399 l 1.478516,1.414062 C 26.973567,14.376825 27,14.437446 27,14.503906 c 0,0.06646 -0.02643,0.125127 -0.07031,0.169922 l -1.478516,1.408203 c -0.04746,0.05156 -0.11589,0.08398 -0.19336,0.08398 -0.143739,0 -0.259765,-0.111441 -0.259765,-0.25 V 15 H 18 v 3 h 6.998047 v -0.916016 c 0,-0.13856 0.116025,-0.25 0.259765,-0.25 0.07747,0 0.1459,0.03242 0.19336,0.08398 l 1.478516,1.414062 C 26.973567,18.376825 27,18.437446 27,18.503906 c 0,0.06646 -0.02643,0.125127 -0.07031,0.169922 l -1.478516,1.408203 c -0.04746,0.05156 -0.11589,0.08398 -0.19336,0.08398 -0.143739,0 -0.259765,-0.111441 -0.259765,-0.25 V 19 H 18 v 4.998047 h 0.916016 c 0.13856,0 0.25,0.116025 0.25,0.259765 0,0.07747 -0.03242,0.1459 -0.08398,0.19336 l -1.414062,1.478516 C 17.623175,25.973567 17.562554,26 17.496094,26 c -0.06646,0 -0.125127,-0.02643 -0.169922,-0.07031 l -1.408203,-1.478516 c -0.05156,-0.04746 -0.08399,-0.115889 -0.08399,-0.19336 0,-0.143739 0.111441,-0.259765 0.25,-0.259765 H 17 v -2.5 V 19 h -3 v 4.998047 h 0.916016 c 0.13856,0 0.25,0.116025 0.25,0.259765 0,0.07747 -0.03242,0.1459 -0.08399,0.19336 l -1.414062,1.478516 C 13.623175,25.973567 13.562554,26 13.496094,26 c -0.06646,0 -0.125127,-0.02643 -0.169922,-0.07031 l -1.408203,-1.478516 c -0.05156,-0.04746 -0.08399,-0.115889 -0.08399,-0.19336 0,-0.143739 0.111441,-0.259765 0.25,-0.259765 H 13 V 19 H 7.001953 v 0.916016 c 0,0.138559 -0.116025,0.25 -0.259765,0.25 -0.07747,0 -0.1459,-0.03242 -0.19336,-0.08398 L 5.070312,18.673828 C 5.026433,18.629038 5,18.570366 5,18.503906 5,18.437446 5.026433,18.37683 5.070312,18.332031 l 1.478516,-1.414062 c 0.04746,-0.05156 0.11589,-0.08398 0.19336,-0.08398 0.143739,0 0.259765,0.11144 0.259765,0.25 V 18 H 13 V 15 H 7.001953 v 0.916016 c 0,0.138559 -0.116025,0.25 -0.259765,0.25 -0.07747,0 -0.1459,-0.03242 -0.19336,-0.08398 L 5.070312,14.673828 C 5.026433,14.629038 5,14.570366 5,14.503906 5,14.437446 5.026433,14.37682 5.070312,14.332031 l 1.478516,-1.414062 c 0.04746,-0.05157 0.11589,-0.08399 0.19336,-0.08399 0.143739,0 0.259765,0.11144 0.259765,0.25 V 14 H 13 V 9 h -0.916016 c -0.138559,0 -0.25,-0.1160256 -0.25,-0.2597656 0,-0.07747 0.03242,-0.1458984 0.08399,-0.1933594 l 1.408203,-1.4765625 c 0.04479,-0.04388 0.103462,-0.072266 0.169922,-0.072266 z M 14,15 v 3 h 3 v -3 z" />
  <path
     id="path873-5-1"
     style="font-variation-settings:normal;opacity:0.8;vector-effect:none;fill:#555761;fill-opacity:1;stroke:none;stroke-width:1;stroke-linecap:round;stroke-linejoin:round;stroke-miterlimit:4;stroke-dasharray:none;stroke-dashoffset:0;stroke-opacity:1;marker:none;paint-order:normal;stop-color:#000000;stop-opacity:1"
     d="m 13.496094,6.9980469 c -0.06646,0 -0.125132,0.028386 -0.169922,0.072266 L 11.917969,8.546875 c -0.05157,0.047461 -0.08398,0.1158894 -0.08398,0.1933594 0,0.14374 0.111441,0.2597656 0.25,0.2597656 H 13 v 5 H 7.001953 v -0.916016 c 0,-0.13856 -0.116025,-0.25 -0.259765,-0.25 -0.07747,0 -0.1459,0.03242 -0.19336,0.08399 L 5.070312,14.332036 C 5.026433,14.376825 5,14.437446 5,14.503906 c 0,0.06646 0.02643,0.125132 0.07031,0.169922 l 1.478516,1.408203 c 0.04746,0.05157 0.11589,0.08398 0.19336,0.08398 0.14374,0 0.259765,-0.111441 0.259765,-0.25 V 15 H 13 v 3 H 7.001953 v -0.916016 c 0,-0.13856 -0.116025,-0.25 -0.259765,-0.25 -0.07747,0 -0.1459,0.03242 -0.19336,0.08398 L 5.070312,18.332026 C 5.026433,18.376825 5,18.437446 5,18.503906 c 0,0.06646 0.02643,0.125132 0.07031,0.169922 l 1.478516,1.408203 c 0.04746,0.05157 0.11589,0.08398 0.19336,0.08398 0.14374,0 0.259765,-0.111441 0.259765,-0.25 V 19 H 13 v 4.998047 h -0.916016 c -0.138559,0 -0.25,0.116026 -0.25,0.259765 0,0.07747 0.03242,0.145899 0.08398,0.19336 l 1.408203,1.478516 C 13.370962,25.973568 13.42963,26 13.496094,26 c 0.06646,0 0.127081,-0.02643 0.171875,-0.07031 l 1.414062,-1.478516 c 0.05157,-0.04746 0.08398,-0.115891 0.08398,-0.19336 0,-0.14374 -0.11144,-0.259765 -0.25,-0.259765 H 14 V 19 h 3 v 2.499023 2.499024 h -0.916016 c -0.138559,0 -0.25,0.116026 -0.25,0.259765 0,0.07747 0.03242,0.145899 0.08398,0.19336 l 1.408203,1.478516 C 17.370962,25.973568 17.42963,26 17.496094,26 c 0.06646,0 0.127081,-0.02643 0.171875,-0.07031 l 1.414062,-1.478516 c 0.05157,-0.04746 0.08398,-0.115891 0.08398,-0.19336 0,-0.14374 -0.11144,-0.259765 -0.25,-0.259765 H 18 V 19 h 6.998047 v 0.916016 c 0,0.138559 0.116025,0.25 0.259765,0.25 0.07747,0 0.145899,-0.03242 0.19336,-0.08398 l 1.478516,-1.408203 C 26.973568,18.629038 27,18.57037 27,18.503906 c 0,-0.06646 -0.02643,-0.127081 -0.07031,-0.171875 l -1.478516,-1.414062 c -0.04746,-0.05157 -0.11589,-0.08398 -0.19336,-0.08398 -0.14374,0 -0.259765,0.11144 -0.259765,0.25 V 18 H 18 v -3 h 6.998047 v 0.916016 c 0,0.138559 0.116025,0.25 0.259765,0.25 0.07747,0 0.145899,-0.03242 0.19336,-0.08398 l 1.478516,-1.408203 C 26.973568,14.629038 27,14.57037 27,14.503906 c 0,-0.06646 -0.02643,-0.127081 -0.07031,-0.171875 l -1.478516,-1.414062 c -0.04746,-0.05157 -0.11589,-0.08399 -0.19336,-0.08399 -0.14374,0 -0.259765,0.11144 -0.259765,0.25 V 14 H 18 V 9 h 0.916016 c 0.13856,0 0.25,-0.1160256 0.25,-0.2597656 0,-0.077469 -0.03242,-0.1458994 -0.08398,-0.1933594 L 17.667969,7.0703125 c -0.04479,-0.04388 -0.105415,-0.072266 -0.171875,-0.072266 -0.06646,0 -0.125132,0.028386 -0.169922,0.072266 L 15.917969,8.546875 c -0.05157,0.047461 -0.08398,0.1158894 -0.08398,0.1933594 0,0.14374 0.111441,0.2597656 0.25,0.2597656 H 17 v 5 H 14 V 9 h 0.916016 c 0.13856,0 0.25,-0.1160256 0.25,-0.2597656 0,-0.077469 -0.03242,-0.1458994 -0.08398,-0.1933594 L 13.667969,7.0703125 c -0.04479,-0.04388 -0.105415,-0.072266 -0.171875,-0.072266 z M 14,15 h 3 v 3 h -3 z" />
</svg>
